# Blender v2.82 (sub 7) OBJ File: 'blade.blend'
# www.blender.org
mtllib blade.mtl
o Cube
v 0.093281 -0.146283 -0.146143
v 0.095326 0.146283 0.146418
v 0.095326 -0.146283 0.146418
v -0.233169 0.023823 -0.062271
v -0.233169 -0.023823 -0.062271
v -0.232548 0.023823 0.045473
v -0.232548 -0.023823 0.045473
v 0.094953 0.023823 0.044893
v 0.094953 -0.023823 0.044893
v 0.133245 0.005718 -0.099083
v 0.133245 -0.005718 -0.099083
v 0.134691 0.024720 0.098792
v 0.134691 -0.024720 0.098792
v 0.132908 -0.146283 -0.146422
v 0.135038 0.146283 0.146132
v 0.135038 -0.146283 0.146132
v 2.193980 0.005718 -0.069968
v 2.193980 -0.005718 -0.069968
v 2.324377 0.024720 0.130467
v 2.324377 -0.024720 0.130467
v 0.093632 0.023823 -0.062839
v 0.093632 -0.023823 -0.062839
v 0.093281 0.146283 -0.146143
v 0.132908 0.146283 -0.146422
v 0.133650 0.024720 -0.043079
v 0.133650 -0.024720 -0.043079
v 2.326399 0.024720 -0.011395
v 2.326399 -0.024720 -0.011395
v 0.819899 -0.005718 -0.101965
v 1.507128 -0.005718 -0.090222
v 1.594520 -0.024720 0.110238
v 0.865097 -0.024720 0.096075
v 1.594520 0.024720 0.110238
v 0.865097 0.024720 0.096075
v 1.507128 0.005718 -0.090222
v 0.819899 0.005718 -0.101965
v 0.864557 0.024720 -0.045747
v 1.595602 0.024720 -0.031607
v 0.864557 -0.024720 -0.045747
v 1.595602 -0.024720 -0.031607
vt 0.415453 0.588312
vt 0.584547 0.588312
vt 0.584547 0.709547
vt 0.415454 0.709547
vt 0.584546 0.709547
vt 0.415454 0.709547
vt 0.584546 0.588312
vt 0.415453 0.588312
vt 0.415454 0.709547
vt 0.415453 0.588312
vt 0.415454 0.588312
vt 0.415454 0.709547
vt 0.584547 0.588312
vt 0.584547 0.709547
vt 0.584546 0.709547
vt 0.584546 0.588312
vt 0.415453 0.540453
vt 0.415453 0.540453
vt 0.584546 0.540454
vt 0.584547 0.540454
vt 0.584547 0.540454
vt 0.584546 0.540454
vt 0.415453 0.540453
vt 0.415453 0.540453
vt 0.625000 0.750000
vt 0.375000 0.750000
vt 0.375000 0.750000
vt 0.625000 0.750000
vt 0.625000 0.500000
vt 0.375000 0.500000
vt 0.375000 0.500000
vt 0.625000 0.500000
vt 0.625000 0.750000
vt 0.375000 0.750000
vt 0.625000 0.500000
vt 0.375000 0.500000
vt 0.874979 0.499901
vt 0.875000 0.750000
vt 0.625000 1.000000
vt 0.375000 1.000000
vt 0.125021 0.499901
vt 0.125000 0.750000
vt 0.375000 0.250000
vt 0.625000 0.250000
vt 0.375000 0.000000
vt 0.625000 0.000000
vn 0.9999 0.0000 0.0143
vn -0.0277 0.0000 0.9996
vn 0.0000 1.0000 -0.0000
vn 0.0000 -1.0000 -0.0000
vn 0.0037 0.0000 1.0000
vn -0.0194 0.0000 0.9998
vn 0.0093 -0.9459 -0.3242
vn 0.0295 0.0000 -0.9996
vn 0.0093 0.9459 -0.3242
vn 0.4045 0.0000 -0.9145
vn -0.0013 0.9473 -0.3203
vn 0.0058 0.9473 -0.3203
vn -0.0042 0.0000 -1.0000
vn 0.0171 0.0000 -0.9999
vn -0.0013 -0.9473 -0.3203
vn 0.0058 -0.9473 -0.3203
vn 0.0072 0.0000 1.0000
vn -1.0000 0.0000 0.0042
vn -1.0000 0.0000 0.0037
vn -1.0000 0.0005 0.0084
vn -0.0071 0.0000 -1.0000
vn 1.0000 0.0000 -0.0071
vn 1.0000 0.0000 -0.0073
vn 1.0000 -0.0000 -0.0072
vn 1.0000 0.0001 -0.0073
vn 1.0000 -0.0001 -0.0073
vn -1.0000 -0.0005 0.0084
vn 0.0018 0.0000 1.0000
vn -0.0017 0.0000 -1.0000
vn -1.0000 0.0000 0.0058
usemtl BladeRawMat
s off
f 28/1/1 27/2/1 19/3/1 20/4/1
f 33/5/2 31/6/2 20/4/2 19/3/2
f 38/7/3 33/5/3 19/3/3 27/2/3
f 31/6/4 40/8/4 28/1/4 20/4/4
f 13/9/4 26/10/4 39/11/4 32/12/4
f 32/12/4 39/11/4 40/8/4 31/6/4
f 25/13/3 12/14/3 34/15/3 37/16/3
f 37/16/3 34/15/3 33/5/3 38/7/3
f 12/14/5 13/9/5 32/12/5 34/15/5
f 34/15/6 32/12/6 31/6/6 33/5/6
usemtl BladeEdgeMat
f 40/8/7 30/17/7 18/18/7 28/1/7
f 30/17/8 35/19/8 17/20/8 18/18/8
f 35/19/9 38/7/9 27/2/9 17/20/9
f 18/18/10 17/20/10 27/2/10 28/1/10
f 10/21/11 25/13/11 37/16/11 36/22/11
f 36/22/12 37/16/12 38/7/12 35/19/12
f 11/23/13 10/21/13 36/22/13 29/24/13
f 29/24/14 36/22/14 35/19/14 30/17/14
f 26/10/15 11/23/15 29/24/15 39/11/15
f 39/11/16 29/24/16 30/17/16 40/8/16
usemtl BladeCacheMat
f 2/25/17 3/26/17 16/27/17 15/28/17
f 23/29/18 1/30/18 22/31/18 21/32/18
f 3/26/19 2/25/19 8/33/19 9/34/19
f 1/30/20 3/26/20 9/34/20 22/31/20
f 23/29/3 2/25/3 15/28/3 24/35/3
f 1/30/21 23/29/21 24/35/21 14/36/21
f 10/21/22 11/23/22 14/36/22 24/35/22
f 13/9/23 12/14/23 15/28/23 16/27/23
f 25/13/24 10/21/24 24/35/24
f 26/10/25 13/9/25 16/27/25 14/36/25
f 11/23/24 26/10/24 14/36/24
f 12/14/26 25/13/26 24/35/26 15/28/26
f 3/26/4 1/30/4 14/36/4 16/27/4
f 2/25/27 23/29/27 21/32/27 8/33/27
usemtl BladeMancheMat
f 21/32/3 4/37/3 6/38/3 8/33/3
f 9/34/28 8/33/28 6/39/28 7/40/28
f 5/41/4 22/31/4 9/34/4 7/42/4
f 5/43/29 4/44/29 21/32/29 22/31/29
f 7/45/30 6/46/30 4/44/30 5/43/30
