# Blender v2.82 (sub 7) OBJ File: 'samurai.blend'
# www.blender.org
mtllib samurai_hair.mtl
o Plane
v 0.000000 0.231900 -0.345941
v 0.223636 0.231900 -0.248496
v 0.020869 0.103244 -0.474571
v 0.248288 0.096115 -0.308972
v -0.223636 0.231900 -0.248496
v -0.212779 0.126153 -0.398499
v 0.055710 0.076772 -0.497570
v 0.312943 -0.160443 -0.417101
v 0.000000 0.231900 -0.345941
v -0.093944 0.002983 0.411225
v -0.093944 0.148342 0.464514
v 0.092195 0.002983 0.411225
v 0.092195 0.148342 0.464514
v -0.000874 0.108461 0.239366
v -0.027133 -0.209683 0.492993
v -0.027133 -0.032851 0.551114
v 0.025384 -0.032851 0.551114
v 0.025384 -0.209683 0.492993
vt 0.000000 0.000000
vt 1.000000 0.000000
vt 1.000000 1.000000
vt 0.000000 1.000000
vt 0.000000 0.000000
vt 0.000000 1.000000
vt 0.000000 1.000000
vt 0.000000 0.000000
vt 0.000000 1.000000
vt 0.375000 0.000000
vt 0.625000 0.000000
vt 0.375000 0.250000
vt 0.625000 0.500000
vt 0.625000 0.750000
vt 0.375000 0.750000
vt 0.125000 0.750000
vt 0.375000 0.750000
vt 0.125000 0.750000
vt 0.375000 0.500000
vt 0.875000 0.500000
vt 0.875000 0.750000
vt 0.625000 0.750000
vt 0.625000 1.000000
vt 0.375000 1.000000
vt 0.875000 0.750000
vt 0.375000 0.000000
vt 0.625000 0.000000
vn 0.4311 0.6063 -0.6683
vn -0.2073 0.7369 -0.6435
vn 0.6079 0.4336 -0.6652
vn -0.9047 0.1466 -0.4000
vn 0.9047 0.1466 -0.4000
vn 0.0000 -0.3589 -0.9334
vn 0.0000 -0.8523 -0.5231
vn 0.0000 0.9847 -0.1744
vn 0.0000 -0.3122 0.9500
vn 0.0000 0.4312 0.9022
vn 0.9070 -0.1376 0.3979
vn -0.9070 -0.1376 0.3979
usemtl None
s off
f 9/1/1 2/2/1 4/3/1 7/4/1
f 1/5/2 3/6/2 6/7/2 5/8/2
f 7/4/3 4/3/3 8/9/3
f 10/10/4 11/11/4 14/12/4
f 14/13/5 13/14/5 12/15/5
f 10/16/6 12/15/6 18/17/6 15/18/6
f 14/19/7 12/15/7 10/16/7
f 14/20/8 11/21/8 13/14/8
f 18/17/9 17/22/9 16/23/9 15/24/9
f 13/14/10 11/21/10 16/25/10 17/22/10
f 12/15/11 13/14/11 17/22/11 18/17/11
f 11/11/12 10/10/12 15/26/12 16/27/12
