# Blender v2.82 (sub 7) OBJ File: 'samurai.blend'
# www.blender.org
mtllib samurai_head.mtl
o Cube.001
v -0.223636 -0.111341 0.138158
v -0.223636 0.231900 0.149295
v -0.172759 -0.265736 -0.248496
v -0.223636 0.231900 -0.248496
v 0.223636 -0.111341 0.138158
v 0.223636 0.231900 0.149295
v 0.172759 -0.265736 -0.248496
v 0.223636 0.231900 -0.248496
v 0.000000 -0.411564 -0.248496
v 0.000000 0.231900 -0.345941
v 0.000000 -0.111341 0.239366
v 0.000000 0.231900 0.181627
v -0.223636 0.108461 0.182264
v -0.223636 0.052936 -0.248496
v 0.223636 0.052936 -0.248496
v 0.223636 0.108461 0.182264
v 0.000000 0.108461 0.239366
v 0.000000 0.016093 -0.361212
v -0.223636 -0.038443 -0.208839
v 0.223636 -0.038443 -0.208839
v 0.223636 0.007079 0.198347
v 0.000000 0.017638 0.239366
v 0.000000 -0.019593 -0.305952
v -0.223636 0.007079 0.198347
v -0.193917 -0.180549 -0.035162
v -0.216723 0.308090 -0.081076
v 0.193917 -0.180549 -0.035162
v 0.216723 0.308090 -0.081076
v 0.000000 0.335778 -0.067378
v 0.000000 -0.245917 0.020680
v 0.267152 0.105686 -0.015000
v -0.267152 0.105686 -0.015000
v -0.267152 -0.005301 0.005948
v 0.267152 -0.005301 0.005948
vt 0.535093 0.375000
vt 0.625000 0.375000
vt 0.625000 0.500000
vt 0.535093 0.500000
vt 0.535093 0.250000
vt 0.625000 0.250000
vt 0.501039 0.250000
vt 0.501039 0.375000
vt 0.501039 0.500000
vt 0.501039 0.112064
vt 0.535093 0.112064
vt 0.375000 0.112064
vt 0.375000 0.250000
vt 0.375000 0.375000
vt 0.375000 0.500000
vt 0.501039 0.637936
vt 0.375000 0.637936
vt 0.535093 0.637936
vt 0.125000 0.500000
vt 0.250000 0.500000
vt 0.250000 0.637936
vt 0.125000 0.637936
vt 0.625000 0.158118
vt 0.625000 0.591882
vt 0.625000 0.750000
vt 0.535093 0.750000
vt 0.535093 0.875000
vt 0.625000 0.875000
vt 0.625000 1.000000
vt 0.535093 1.000000
vt 0.375000 0.750000
vt 0.250000 0.750000
vt 0.750000 0.591882
vt 0.875000 0.591882
vt 0.875000 0.750000
vt 0.750000 0.750000
vt 0.125000 0.750000
vt 0.501039 0.750000
vt 0.501039 0.875000
vt 0.501039 1.000000
vt 0.375000 0.875000
vt 0.375000 1.000000
vt 0.375000 0.000000
vt 0.501039 0.000000
vt 0.535093 0.000000
vt 0.750000 0.500000
vt 0.875000 0.500000
vt 0.625000 0.000000
vn 0.4226 0.0350 -0.9056
vn -0.4226 0.0350 -0.9056
vn -0.3713 -0.5557 -0.7439
vn 0.3713 -0.5557 -0.7439
vn -0.9821 -0.0540 -0.1803
vn -0.9572 -0.2817 -0.0667
vn 0.2523 -0.0485 -0.9664
vn -0.2523 -0.0485 -0.9664
vn 0.9572 -0.2817 -0.0667
vn 0.9821 -0.0540 -0.1803
vn -0.5044 -0.7750 0.3808
vn 0.5044 -0.7750 0.3808
vn -0.9862 0.1087 -0.1250
vn 0.9757 0.1861 0.1155
vn -0.1845 0.3390 0.9225
vn 0.2934 -0.8571 0.4233
vn -0.0951 0.9323 0.3488
vn 0.0951 0.9323 0.3488
vn -0.2934 -0.8571 0.4233
vn 0.1845 0.3390 0.9225
vn 0.2154 0.0814 0.9731
vn -0.2154 0.0814 0.9731
vn 0.9756 0.0377 0.2164
vn 0.9574 -0.2721 0.0968
vn -0.2903 -0.2262 0.9298
vn 0.2903 -0.2262 0.9298
vn -0.9574 -0.2721 0.0968
vn -0.9756 0.0377 0.2164
vn 0.1282 0.9203 -0.3696
vn -0.1282 0.9203 -0.3696
vn 0.9862 0.1087 -0.1250
vn -0.9757 0.1861 0.1155
usemtl Material.001
s off
f 18/1/1 10/2/1 8/3/1 15/4/1
f 14/5/2 4/6/2 10/2/2 18/1/2
f 19/7/3 14/5/3 18/1/3 23/8/3
f 23/8/4 18/1/4 15/4/4 20/9/4
f 33/10/5 32/11/5 14/5/5 19/7/5
f 25/12/6 33/10/6 19/7/6 3/13/6
f 9/14/7 23/8/7 20/9/7 7/15/7
f 3/13/8 19/7/8 23/8/8 9/14/8
f 7/15/9 20/9/9 34/16/9 27/17/9
f 20/9/10 15/4/10 31/18/10 34/16/10
f 3/19/11 9/20/11 30/21/11 25/22/11
f 9/20/12 7/15/12 27/17/12 30/21/12
usemtl Material.002
f 32/11/13 26/23/13 4/6/13 14/5/13
f 31/18/14 28/24/14 6/25/14 16/26/14
f 17/27/15 12/28/15 2/29/15 13/30/15
f 30/21/16 27/17/16 5/31/16 11/32/16
f 29/33/17 26/34/17 2/35/17 12/36/17
f 28/24/18 29/33/18 12/36/18 6/25/18
f 25/22/19 30/21/19 11/32/19 1/37/19
f 16/26/20 6/25/20 12/28/20 17/27/20
f 21/38/21 16/26/21 17/27/21 22/39/21
f 22/39/22 17/27/22 13/30/22 24/40/22
f 34/16/23 31/18/23 16/26/23 21/38/23
f 27/17/24 34/16/24 21/38/24 5/31/24
f 11/41/25 22/39/25 24/40/25 1/42/25
f 5/31/26 21/38/26 22/39/26 11/41/26
f 1/43/27 24/44/27 33/10/27 25/12/27
f 24/44/28 13/45/28 32/11/28 33/10/28
f 8/3/29 10/46/29 29/33/29 28/24/29
f 10/46/30 4/47/30 26/34/30 29/33/30
f 15/4/31 8/3/31 28/24/31 31/18/31
f 13/45/32 2/48/32 26/23/32 32/11/32
