# Blender v2.82 (sub 7) OBJ File: 'scorpion.blend'
# www.blender.org
mtllib scorpion.mtl
o Cube
v 0.548773 0.090949 -1.034861
v 0.548773 -0.443639 -1.242632
v 0.198795 1.316865 1.373045
v 0.198795 1.003043 1.435811
v 0.717028 0.269637 -0.231474
v 0.717028 0.533077 0.571913
v 0.717028 -0.443639 0.502657
v 0.717028 -0.443639 -0.369988
v 0.249306 -0.091747 -1.614949
v 0.415815 -0.062358 -1.619603
v 0.274753 0.075770 -1.518168
v 0.405697 0.055479 -1.605209
v 0.651097 0.173252 -1.253331
v 0.662784 0.382359 -1.240615
v 0.443731 0.222152 -1.083282
v 0.455418 0.431260 -1.070565
v 0.520332 0.234511 -1.530988
v 0.520727 0.075976 -1.544634
v 0.336001 0.081496 -1.466230
v 0.355312 0.267558 -1.406933
v 0.388351 0.823541 1.081443
v 0.388351 0.246585 1.056111
v -0.548773 0.090949 -1.034861
v -0.548773 -0.443639 -1.242632
v -0.198795 1.316865 1.373045
v -0.198795 1.003043 1.435811
v 0.000000 -0.443639 -1.515071
v 0.000000 1.312875 1.426711
v 0.000000 0.999052 1.489477
v 0.000000 0.090949 -1.307301
v -0.717028 0.269637 -0.231474
v -0.717028 0.533077 0.571913
v -0.717028 -0.443639 0.502657
v -0.717028 -0.443639 -0.369988
v 0.000000 -0.443639 -0.369988
v 0.000000 -0.443639 0.502657
v 0.000000 0.165743 -0.231474
v 0.000000 0.352003 0.571913
v -0.249306 -0.091747 -1.614949
v -0.415815 -0.062358 -1.619603
v -0.274753 0.075770 -1.518168
v -0.405697 0.055479 -1.605209
v -0.651097 0.173252 -1.253331
v -0.662784 0.382359 -1.240615
v -0.443731 0.222152 -1.083282
v -0.455418 0.431260 -1.070565
v -0.520332 0.234511 -1.530988
v -0.520727 0.075976 -1.544634
v -0.336001 0.081496 -1.466230
v -0.355312 0.267558 -1.406933
v -0.388351 0.823541 1.081443
v 0.000000 0.210616 1.127094
v 0.000000 0.787572 1.152426
v -0.388351 0.246585 1.056111
vt 0.375000 0.500000
vt 0.625000 0.500000
vt 0.625000 0.750000
vt 0.375000 0.719519
vt 0.625000 0.719519
vt 0.625000 0.750000
vt 0.375000 0.750000
vt 0.375000 0.375000
vt 0.625000 0.375000
vt 0.625000 0.500000
vt 0.375000 0.500000
vt 0.625000 0.875000
vt 0.375000 0.875000
vt 0.750000 0.500000
vt 0.750000 0.583333
vt 0.625000 0.583333
vt 0.750000 0.666667
vt 0.625000 0.666667
vt 0.375000 0.583333
vt 0.375000 0.666667
vt 0.250000 0.583333
vt 0.250000 0.500000
vt 0.250000 0.666667
vt 0.250000 0.750000
vt 0.250000 0.719519
vt 0.375000 0.500000
vt 0.625000 0.500000
vt 0.375000 0.500000
vt 0.375000 0.750000
vt 0.625000 0.750000
vt 0.625000 0.500000
vt 0.625000 0.750000
vt 0.375000 0.750000
vt 0.375000 0.750000
vt 0.750000 0.719519
vt 0.750000 0.750000
vt 0.375000 0.500000
vt 0.625000 0.750000
vt 0.625000 0.500000
vt 0.375000 0.719519
vt 0.375000 0.750000
vt 0.625000 0.750000
vt 0.625000 0.719519
vt 0.375000 0.500000
vt 0.625000 0.500000
vt 0.625000 0.583333
vt 0.625000 0.666667
vt 0.375000 0.583333
vt 0.375000 0.666667
vt 0.375000 0.500000
vt 0.625000 0.500000
vt 0.375000 0.500000
vt 0.625000 0.500000
vt 0.625000 0.750000
vt 0.375000 0.750000
vt 0.625000 0.750000
vt 0.375000 0.750000
vt 0.375000 0.750000
vn -0.4241 0.5005 -0.7547
vn 0.8857 0.0195 0.4639
vn 0.4200 0.3288 -0.8459
vn 0.2523 0.1898 0.9488
vn -0.0536 0.9902 -0.1288
vn -0.1880 0.9458 -0.2647
vn 0.9777 0.0561 -0.2023
vn 1.0000 0.0000 0.0000
vn 0.0000 -1.0000 0.0000
vn 0.2163 -0.4010 0.8902
vn -0.6118 -0.2533 0.7494
vn 0.6203 -0.0821 0.7800
vn -0.4062 0.5707 -0.7137
vn -0.0484 0.1170 -0.9920
vn 0.4483 0.1071 -0.8875
vn 0.9049 0.0027 -0.4256
vn -0.1198 0.9067 -0.4044
vn -0.9633 0.0269 0.2670
vn 0.0657 -0.9480 0.3113
vn -0.1924 0.7890 -0.5835
vn -0.2149 0.4434 -0.8702
vn 0.8360 -0.0333 0.5477
vn 0.1188 -0.5412 0.8324
vn 0.2609 -0.7006 0.6641
vn 0.0698 -0.6477 0.7587
vn 0.4241 0.5005 -0.7547
vn -0.8857 0.0195 0.4639
vn -0.4200 0.3288 -0.8459
vn -0.2523 0.1898 0.9488
vn 0.0536 0.9902 -0.1288
vn 0.1880 0.9458 -0.2647
vn -0.9777 0.0561 -0.2023
vn -1.0000 0.0000 0.0000
vn -0.2163 -0.4010 0.8902
vn 0.6118 -0.2533 0.7494
vn -0.6203 -0.0821 0.7800
vn 0.4062 0.5707 -0.7137
vn 0.0484 0.1170 -0.9920
vn -0.4483 0.1071 -0.8875
vn -0.9049 0.0027 -0.4256
vn 0.1198 0.9067 -0.4044
vn 0.9633 0.0269 0.2670
vn -0.0657 -0.9480 0.3113
vn 0.1924 0.7890 -0.5835
vn 0.2149 0.4434 -0.8702
vn -0.8360 -0.0333 0.5477
vn -0.1188 -0.5412 0.8324
vn -0.2609 -0.7006 0.6641
vn -0.0698 -0.6477 0.7587
usemtl Material
s off
f 9/1/1 11/2/1 12/3/1
f 22/4/2 21/5/2 3/6/2 4/7/2
f 27/8/3 30/9/3 1/10/3 2/11/3
f 4/7/4 3/6/4 28/12/4 29/13/4
f 1/10/5 30/14/5 37/15/5 5/16/5
f 5/16/6 37/15/6 38/17/6 6/18/6
f 2/11/7 1/10/7 5/16/7 8/19/7
f 8/19/8 5/16/8 6/18/8 7/20/8
f 2/11/9 35/21/9 27/22/9
f 35/21/9 8/19/9 7/20/9 36/23/9
f 29/24/10 52/25/10 22/4/10 4/7/10
f 19/26/11 20/27/11 11/2/11 9/1/11
f 15/28/12 13/29/12 14/30/12 16/31/12
f 20/27/13 17/32/13 12/3/13 11/2/13
f 9/1/14 12/3/14 10/33/14
f 17/32/15 18/34/15 10/33/15 12/3/15
f 14/30/16 13/29/16 18/34/16 17/32/16
f 16/31/17 14/30/17 17/32/17 20/27/17
f 15/28/18 16/31/18 20/27/18 19/26/18
f 13/29/19 15/28/19 19/26/19 18/34/19
f 21/5/20 6/18/20 38/17/20 53/35/20
f 3/6/21 21/5/21 53/35/21 28/36/21
f 2/11/9 8/19/9 35/21/9
f 7/20/22 6/18/22 21/5/22 22/4/22
f 10/33/23 18/34/23 9/1/23
f 18/34/24 19/26/24 9/1/24
f 52/25/25 36/23/25 7/20/25 22/4/25
f 39/37/26 42/38/26 41/39/26
f 54/40/27 26/41/27 25/42/27 51/43/27
f 27/8/28 24/44/28 23/45/28 30/9/28
f 26/41/29 29/13/29 28/12/29 25/42/29
f 23/45/30 31/46/30 37/15/30 30/14/30
f 31/46/31 32/47/31 38/17/31 37/15/31
f 24/44/32 34/48/32 31/46/32 23/45/32
f 34/48/33 33/49/33 32/47/33 31/46/33
f 24/44/9 27/22/9 35/21/9
f 35/21/9 36/23/9 33/49/9 34/48/9
f 29/24/34 26/41/34 54/40/34 52/25/34
f 49/50/35 39/37/35 41/39/35 50/51/35
f 45/52/36 46/53/36 44/54/36 43/55/36
f 50/51/37 41/39/37 42/38/37 47/56/37
f 39/37/38 40/57/38 42/38/38
f 47/56/39 42/38/39 40/57/39 48/58/39
f 44/54/40 47/56/40 48/58/40 43/55/40
f 46/53/41 50/51/41 47/56/41 44/54/41
f 45/52/42 49/50/42 50/51/42 46/53/42
f 43/55/43 48/58/43 49/50/43 45/52/43
f 51/43/44 53/35/44 38/17/44 32/47/44
f 25/42/45 28/36/45 53/35/45 51/43/45
f 24/44/9 35/21/9 34/48/9
f 33/49/46 54/40/46 51/43/46 32/47/46
f 40/57/47 39/37/47 48/58/47
f 48/58/48 39/37/48 49/50/48
f 52/25/49 54/40/49 33/49/49 36/23/49
